<mxfile host="app.diagrams.net" modified="2023-08-25T09:03:56.509Z" agent="Mozilla/5.0 (Windows NT 10.0; Win64; x64) AppleWebKit/537.36 (KHTML, like Gecko) Chrome/116.0.0.0 Safari/537.36 Edg/116.0.1938.54" etag="VJ0CWn4KcbAFH72TKgHw" version="21.6.9" type="device">
  <diagram id="vB-pVdQDk7MpL5Szl4-f" name="第 1 页">
    <mxGraphModel dx="1167" dy="661" grid="1" gridSize="10" guides="1" tooltips="1" connect="1" arrows="1" fold="1" page="1" pageScale="1" pageWidth="827" pageHeight="1169" math="0" shadow="0">
      <root>
        <mxCell id="0" />
        <mxCell id="1" parent="0" />
        <mxCell id="K3JY6lSeTadiJTJVGYnh-12" value="" style="endArrow=none;html=1;rounded=0;dashed=1;strokeWidth=3;opacity=70;" parent="1" edge="1">
          <mxGeometry width="50" height="50" relative="1" as="geometry">
            <mxPoint x="20" y="559" as="sourcePoint" />
            <mxPoint x="790" y="559" as="targetPoint" />
          </mxGeometry>
        </mxCell>
        <mxCell id="K3JY6lSeTadiJTJVGYnh-13" value="" style="endArrow=none;html=1;rounded=0;dashed=1;strokeWidth=3;opacity=70;" parent="1" edge="1">
          <mxGeometry width="50" height="50" relative="1" as="geometry">
            <mxPoint x="400" y="958" as="sourcePoint" />
            <mxPoint x="400" y="158" as="targetPoint" />
          </mxGeometry>
        </mxCell>
        <mxCell id="zEPNm0XynteU0LPwdfjk-49" value="" style="rounded=0;whiteSpace=wrap;html=1;sketch=1;fillColor=none;strokeWidth=2;" parent="1" vertex="1">
          <mxGeometry x="40" y="198" width="720" height="720" as="geometry" />
        </mxCell>
        <mxCell id="zEPNm0XynteU0LPwdfjk-67" value="" style="rounded=0;whiteSpace=wrap;html=1;fillColor=#fff2cc;sketch=0;strokeColor=none;fontStyle=1;arcSize=0;opacity=20;" parent="1" vertex="1">
          <mxGeometry x="400" y="518" width="360" height="400" as="geometry" />
        </mxCell>
        <mxCell id="zEPNm0XynteU0LPwdfjk-68" value="&lt;div&gt;&lt;br&gt;&lt;/div&gt;" style="rounded=0;whiteSpace=wrap;html=1;fillColor=#e1d5e7;sketch=0;strokeColor=none;fontStyle=1;arcSize=0;opacity=20;" parent="1" vertex="1">
          <mxGeometry x="40" y="638" width="320" height="280" as="geometry" />
        </mxCell>
        <mxCell id="zEPNm0XynteU0LPwdfjk-64" value="&lt;div&gt;军&lt;/div&gt;&lt;div&gt;械&lt;/div&gt;&lt;div&gt;库&lt;/div&gt;" style="rounded=0;whiteSpace=wrap;html=1;fillColor=#D5E8D4;sketch=0;strokeColor=none;fontStyle=1;arcSize=0;gradientColor=none;opacity=20;" parent="1" vertex="1">
          <mxGeometry x="400" y="198" width="360" height="280" as="geometry" />
        </mxCell>
        <mxCell id="zEPNm0XynteU0LPwdfjk-35" value="&lt;div&gt;厨房&lt;/div&gt;" style="rounded=0;whiteSpace=wrap;html=1;fillColor=#F19C99;sketch=0;strokeColor=none;fontStyle=1;arcSize=0;opacity=20;" parent="1" vertex="1">
          <mxGeometry x="40" y="198" width="320" height="400" as="geometry" />
        </mxCell>
        <mxCell id="zEPNm0XynteU0LPwdfjk-2" value="" style="rounded=1;whiteSpace=wrap;html=1;fillColor=#d5e8d4;sketch=1;strokeColor=#82b366;fontStyle=1" parent="1" vertex="1">
          <mxGeometry x="600" y="278" width="80" height="80" as="geometry" />
        </mxCell>
        <mxCell id="zEPNm0XynteU0LPwdfjk-3" value="" style="rounded=1;whiteSpace=wrap;html=1;fillColor=#d5e8d4;sketch=1;strokeColor=#82b366;fontStyle=1" parent="1" vertex="1">
          <mxGeometry x="480" y="278" width="80" height="80" as="geometry" />
        </mxCell>
        <mxCell id="zEPNm0XynteU0LPwdfjk-4" value="" style="rounded=1;whiteSpace=wrap;html=1;fillColor=#d5e8d4;sketch=1;strokeColor=#82b366;fontStyle=1" parent="1" vertex="1">
          <mxGeometry x="600" y="198" width="80" height="40" as="geometry" />
        </mxCell>
        <mxCell id="zEPNm0XynteU0LPwdfjk-5" value="" style="rounded=1;whiteSpace=wrap;html=1;fillColor=#d5e8d4;sketch=1;strokeColor=#82b366;fontStyle=1" parent="1" vertex="1">
          <mxGeometry x="480" y="198" width="80" height="40" as="geometry" />
        </mxCell>
        <mxCell id="zEPNm0XynteU0LPwdfjk-6" value="" style="rounded=1;whiteSpace=wrap;html=1;fillColor=#d5e8d4;sketch=1;strokeColor=#82b366;fontStyle=1" parent="1" vertex="1">
          <mxGeometry x="440" y="398" width="240" height="40" as="geometry" />
        </mxCell>
        <mxCell id="zEPNm0XynteU0LPwdfjk-7" value="" style="rounded=1;whiteSpace=wrap;html=1;fillColor=#d5e8d4;sketch=1;strokeColor=#82b366;fontStyle=1" parent="1" vertex="1">
          <mxGeometry x="400" y="278" width="40" height="160" as="geometry" />
        </mxCell>
        <mxCell id="zEPNm0XynteU0LPwdfjk-8" value="" style="rounded=1;whiteSpace=wrap;html=1;fillColor=#d5e8d4;sketch=1;strokeColor=#82b366;fontStyle=1" parent="1" vertex="1">
          <mxGeometry x="720" y="198" width="40" height="80" as="geometry" />
        </mxCell>
        <mxCell id="zEPNm0XynteU0LPwdfjk-9" value="" style="rounded=1;whiteSpace=wrap;html=1;fillColor=#d5e8d4;sketch=1;strokeColor=#82b366;fontStyle=1" parent="1" vertex="1">
          <mxGeometry x="720" y="278" width="40" height="80" as="geometry" />
        </mxCell>
        <mxCell id="zEPNm0XynteU0LPwdfjk-10" value="弹药" style="text;html=1;strokeColor=none;fillColor=none;align=center;verticalAlign=middle;whiteSpace=wrap;rounded=0;sketch=1;fontStyle=1" parent="1" vertex="1">
          <mxGeometry x="610" y="303" width="60" height="30" as="geometry" />
        </mxCell>
        <mxCell id="zEPNm0XynteU0LPwdfjk-11" value="武器配件" style="text;html=1;strokeColor=none;fillColor=none;align=center;verticalAlign=middle;whiteSpace=wrap;rounded=0;sketch=1;fontStyle=1" parent="1" vertex="1">
          <mxGeometry x="490" y="303" width="60" height="30" as="geometry" />
        </mxCell>
        <mxCell id="zEPNm0XynteU0LPwdfjk-12" value="武器柜" style="text;html=1;strokeColor=none;fillColor=none;align=center;verticalAlign=middle;whiteSpace=wrap;rounded=0;sketch=1;fontStyle=1" parent="1" vertex="1">
          <mxGeometry x="490" y="203" width="60" height="30" as="geometry" />
        </mxCell>
        <mxCell id="zEPNm0XynteU0LPwdfjk-13" value="武器柜" style="text;html=1;strokeColor=none;fillColor=none;align=center;verticalAlign=middle;whiteSpace=wrap;rounded=0;sketch=1;fontStyle=1" parent="1" vertex="1">
          <mxGeometry x="610" y="203" width="60" height="30" as="geometry" />
        </mxCell>
        <mxCell id="zEPNm0XynteU0LPwdfjk-14" value="手枪柜" style="text;html=1;strokeColor=none;fillColor=none;align=center;verticalAlign=middle;whiteSpace=wrap;rounded=0;sketch=1;fontStyle=1" parent="1" vertex="1">
          <mxGeometry x="730" y="210.5" width="20" height="55" as="geometry" />
        </mxCell>
        <mxCell id="zEPNm0XynteU0LPwdfjk-15" value="&lt;div&gt;绿植&lt;/div&gt;" style="ellipse;whiteSpace=wrap;html=1;aspect=fixed;sketch=1;fillColor=#d5e8d4;strokeColor=#82b366;fontStyle=1" parent="1" vertex="1">
          <mxGeometry x="720" y="398" width="40" height="40" as="geometry" />
        </mxCell>
        <mxCell id="zEPNm0XynteU0LPwdfjk-17" value="" style="rounded=1;whiteSpace=wrap;html=1;fillColor=#e1d5e7;sketch=1;strokeColor=#9673a6;fontStyle=1" parent="1" vertex="1">
          <mxGeometry x="40" y="798" width="40" height="80" as="geometry" />
        </mxCell>
        <mxCell id="zEPNm0XynteU0LPwdfjk-19" value="" style="rounded=1;whiteSpace=wrap;html=1;fillColor=#e1d5e7;sketch=1;strokeColor=#9673a6;fontStyle=1" parent="1" vertex="1">
          <mxGeometry x="40" y="878" width="80" height="40" as="geometry" />
        </mxCell>
        <mxCell id="zEPNm0XynteU0LPwdfjk-27" value="洗衣机" style="rounded=1;whiteSpace=wrap;html=1;fillColor=#e1d5e7;sketch=1;strokeColor=#9673a6;fontStyle=1" parent="1" vertex="1">
          <mxGeometry x="40" y="758" width="40" height="40" as="geometry" />
        </mxCell>
        <mxCell id="zEPNm0XynteU0LPwdfjk-28" value="烘干机" style="rounded=1;whiteSpace=wrap;html=1;fillColor=#e1d5e7;sketch=1;strokeColor=#9673a6;fontStyle=1" parent="1" vertex="1">
          <mxGeometry x="40" y="718" width="40" height="40" as="geometry" />
        </mxCell>
        <mxCell id="zEPNm0XynteU0LPwdfjk-29" value="&lt;div&gt;背包柜&lt;/div&gt;" style="rounded=1;whiteSpace=wrap;html=1;fillColor=#e1d5e7;sketch=1;strokeColor=#9673a6;fontStyle=1" parent="1" vertex="1">
          <mxGeometry x="40" y="678" width="40" height="40" as="geometry" />
        </mxCell>
        <mxCell id="zEPNm0XynteU0LPwdfjk-30" value="&lt;div&gt;小&lt;/div&gt;&lt;div&gt;衣&lt;/div&gt;&lt;div&gt;架&lt;/div&gt;" style="rounded=1;whiteSpace=wrap;html=1;fillColor=#e1d5e7;sketch=1;strokeColor=#9673a6;fontStyle=1" parent="1" vertex="1">
          <mxGeometry x="120" y="838" width="40" height="80" as="geometry" />
        </mxCell>
        <mxCell id="zEPNm0XynteU0LPwdfjk-31" value="大衣架" style="rounded=1;whiteSpace=wrap;html=1;fillColor=#e1d5e7;sketch=1;strokeColor=#9673a6;fontStyle=1" parent="1" vertex="1">
          <mxGeometry x="200" y="878" width="80" height="40" as="geometry" />
        </mxCell>
        <mxCell id="zEPNm0XynteU0LPwdfjk-32" value="&lt;div&gt;小&lt;/div&gt;&lt;div&gt;衣&lt;/div&gt;&lt;div&gt;架&lt;/div&gt;" style="rounded=1;whiteSpace=wrap;html=1;fillColor=#e1d5e7;sketch=1;strokeColor=#9673a6;fontStyle=1" parent="1" vertex="1">
          <mxGeometry x="240" y="758" width="40" height="80" as="geometry" />
        </mxCell>
        <mxCell id="zEPNm0XynteU0LPwdfjk-34" value="大衣架" style="rounded=1;whiteSpace=wrap;html=1;fillColor=#e1d5e7;sketch=1;strokeColor=#9673a6;fontStyle=1" parent="1" vertex="1">
          <mxGeometry x="120" y="758" width="80" height="40" as="geometry" />
        </mxCell>
        <mxCell id="zEPNm0XynteU0LPwdfjk-37" value="&lt;div&gt;楼&lt;/div&gt;&lt;div&gt;梯&lt;/div&gt;" style="rounded=1;whiteSpace=wrap;html=1;fillColor=#999999;sketch=1;strokeColor=none;fontStyle=1" parent="1" vertex="1">
          <mxGeometry x="40" y="438" width="40" height="160" as="geometry" />
        </mxCell>
        <mxCell id="zEPNm0XynteU0LPwdfjk-38" value="开放式衣柜" style="rounded=1;whiteSpace=wrap;html=1;fillColor=#e1d5e7;sketch=1;strokeColor=#9673a6;fontStyle=1" parent="1" vertex="1">
          <mxGeometry x="160" y="678" width="120" height="40" as="geometry" />
        </mxCell>
        <mxCell id="zEPNm0XynteU0LPwdfjk-39" value="冰柜" style="rounded=1;whiteSpace=wrap;html=1;fillColor=#dae8fc;sketch=1;strokeColor=#6c8ebf;fontStyle=1" parent="1" vertex="1">
          <mxGeometry x="320" y="358" width="40" height="80" as="geometry" />
        </mxCell>
        <mxCell id="zEPNm0XynteU0LPwdfjk-40" value="冰柜" style="rounded=1;whiteSpace=wrap;html=1;fillColor=#dae8fc;sketch=1;strokeColor=#6c8ebf;fontStyle=1" parent="1" vertex="1">
          <mxGeometry x="320" y="278" width="40" height="80" as="geometry" />
        </mxCell>
        <mxCell id="zEPNm0XynteU0LPwdfjk-41" value="冰箱" style="rounded=1;whiteSpace=wrap;html=1;fillColor=#dae8fc;sketch=1;strokeColor=#6c8ebf;fontStyle=1" parent="1" vertex="1">
          <mxGeometry x="320" y="198" width="40" height="40" as="geometry" />
        </mxCell>
        <mxCell id="zEPNm0XynteU0LPwdfjk-43" value="冰柜" style="rounded=1;whiteSpace=wrap;html=1;fillColor=#dae8fc;sketch=1;strokeColor=#6c8ebf;fontStyle=1" parent="1" vertex="1">
          <mxGeometry x="240" y="358" width="40" height="80" as="geometry" />
        </mxCell>
        <mxCell id="zEPNm0XynteU0LPwdfjk-44" value="冰柜" style="rounded=1;whiteSpace=wrap;html=1;fillColor=#dae8fc;sketch=1;strokeColor=#6c8ebf;fontStyle=1" parent="1" vertex="1">
          <mxGeometry x="240" y="278" width="40" height="80" as="geometry" />
        </mxCell>
        <mxCell id="zEPNm0XynteU0LPwdfjk-45" value="冰箱" style="rounded=1;whiteSpace=wrap;html=1;fillColor=#dae8fc;sketch=1;strokeColor=#6c8ebf;fontStyle=1" parent="1" vertex="1">
          <mxGeometry x="280" y="198" width="40" height="40" as="geometry" />
        </mxCell>
        <mxCell id="zEPNm0XynteU0LPwdfjk-47" value="冷冻架" style="rounded=1;whiteSpace=wrap;html=1;fillColor=#dae8fc;sketch=1;strokeColor=#6c8ebf;fontStyle=1" parent="1" vertex="1">
          <mxGeometry x="200" y="198" width="80" height="40" as="geometry" />
        </mxCell>
        <mxCell id="zEPNm0XynteU0LPwdfjk-50" value="垃圾桶" style="text;html=1;strokeColor=none;fillColor=none;align=center;verticalAlign=middle;whiteSpace=wrap;rounded=0;sketch=1;fontStyle=1" parent="1" vertex="1">
          <mxGeometry x="160" y="198" width="40" height="40" as="geometry" />
        </mxCell>
        <mxCell id="zEPNm0XynteU0LPwdfjk-52" value="" style="ellipse;whiteSpace=wrap;html=1;aspect=fixed;sketch=1;fillColor=#999999;strokeColor=#4D4D4D;fontStyle=1" parent="1" vertex="1">
          <mxGeometry x="160" y="198" width="40" height="40" as="geometry" />
        </mxCell>
        <mxCell id="zEPNm0XynteU0LPwdfjk-53" value="" style="rounded=1;whiteSpace=wrap;html=1;fillColor=#f8cecc;sketch=1;strokeColor=#b85450;fontStyle=1" parent="1" vertex="1">
          <mxGeometry x="40" y="238" width="40" height="160" as="geometry" />
        </mxCell>
        <object label="" Bottom="False" id="zEPNm0XynteU0LPwdfjk-54">
          <mxCell style="rounded=1;whiteSpace=wrap;html=1;fillColor=#f8cecc;sketch=1;strokeColor=#b85450;fontStyle=1;imageWidth=23;treeFolding=0;top=0" parent="1" vertex="1">
            <mxGeometry x="40" y="198" width="40" height="40" as="geometry" />
          </mxCell>
        </object>
        <mxCell id="zEPNm0XynteU0LPwdfjk-55" value="" style="rounded=1;whiteSpace=wrap;html=1;fillColor=#f8cecc;sketch=1;strokeColor=#b85450;fontStyle=1" parent="1" vertex="1">
          <mxGeometry x="120" y="398" width="120" height="40" as="geometry" />
        </mxCell>
        <mxCell id="zEPNm0XynteU0LPwdfjk-56" value="" style="rounded=1;whiteSpace=wrap;html=1;fillColor=#f8cecc;sketch=1;strokeColor=#b85450;fontStyle=1" parent="1" vertex="1">
          <mxGeometry x="120" y="278" width="40" height="80" as="geometry" />
        </mxCell>
        <mxCell id="zEPNm0XynteU0LPwdfjk-57" value="" style="rounded=1;whiteSpace=wrap;html=1;fillColor=#f8cecc;sketch=1;strokeColor=#b85450;fontStyle=1" parent="1" vertex="1">
          <mxGeometry x="160" y="278" width="40" height="80" as="geometry" />
        </mxCell>
        <mxCell id="zEPNm0XynteU0LPwdfjk-58" value="&lt;div&gt;清洁&lt;/div&gt;&lt;div&gt;用品&lt;br&gt;&lt;/div&gt;" style="rounded=1;whiteSpace=wrap;html=1;fillColor=#e1d5e7;sketch=1;strokeColor=#9673a6;fontStyle=1" parent="1" vertex="1">
          <mxGeometry x="120" y="678" width="40" height="40" as="geometry" />
        </mxCell>
        <mxCell id="zEPNm0XynteU0LPwdfjk-60" value="零食" style="rounded=1;whiteSpace=wrap;html=1;fillColor=#f8cecc;sketch=1;strokeColor=#b85450;fontStyle=1" parent="1" vertex="1">
          <mxGeometry x="240" y="478" width="120" height="40" as="geometry" />
        </mxCell>
        <mxCell id="zEPNm0XynteU0LPwdfjk-65" value="零食" style="rounded=1;whiteSpace=wrap;html=1;fillColor=#f8cecc;sketch=1;strokeColor=#b85450;fontStyle=1" parent="1" vertex="1">
          <mxGeometry x="240" y="558" width="120" height="40" as="geometry" />
        </mxCell>
        <mxCell id="zEPNm0XynteU0LPwdfjk-69" value="" style="endArrow=classic;startArrow=classic;html=1;rounded=0;" parent="1" edge="1">
          <mxGeometry width="50" height="50" relative="1" as="geometry">
            <mxPoint x="771" y="798" as="sourcePoint" />
            <mxPoint x="771" y="678" as="targetPoint" />
          </mxGeometry>
        </mxCell>
        <mxCell id="zEPNm0XynteU0LPwdfjk-70" value="车库门" style="text;html=1;strokeColor=none;fillColor=none;align=center;verticalAlign=middle;whiteSpace=wrap;rounded=0;sketch=1;fontStyle=1" parent="1" vertex="1">
          <mxGeometry x="780" y="718" width="40" height="40" as="geometry" />
        </mxCell>
        <mxCell id="yIkUFP5XTHeedF_Cc7hn-6" value="锤子 / 园艺" style="rounded=1;whiteSpace=wrap;html=1;fillColor=#fad7ac;sketch=1;strokeColor=#b46504;fontStyle=1" parent="1" vertex="1">
          <mxGeometry x="680" y="518" width="80" height="40" as="geometry" />
        </mxCell>
        <mxCell id="yIkUFP5XTHeedF_Cc7hn-10" value="杂物箱" style="rounded=1;whiteSpace=wrap;html=1;fillColor=#fad7ac;sketch=1;strokeColor=#b46504;fontStyle=1" parent="1" vertex="1">
          <mxGeometry x="600" y="798" width="120" height="40" as="geometry" />
        </mxCell>
        <mxCell id="yIkUFP5XTHeedF_Cc7hn-11" value="杂物箱" style="rounded=1;whiteSpace=wrap;html=1;fillColor=#fad7ac;sketch=1;strokeColor=#b46504;fontStyle=1" parent="1" vertex="1">
          <mxGeometry x="440" y="798" width="120" height="40" as="geometry" />
        </mxCell>
        <mxCell id="yIkUFP5XTHeedF_Cc7hn-12" value="&lt;div&gt;&lt;br&gt;&lt;/div&gt;&lt;div&gt;&lt;br&gt;&lt;/div&gt;&lt;div&gt;&lt;br&gt;&lt;/div&gt;&lt;div&gt;&lt;br&gt;&lt;/div&gt;&lt;div&gt;&lt;br&gt;&lt;/div&gt;&lt;div&gt;&lt;br&gt;&lt;/div&gt;&lt;div&gt;&lt;br&gt;&lt;/div&gt;&lt;div&gt;&lt;br&gt;&lt;/div&gt;&lt;div&gt;&lt;br&gt;&lt;/div&gt;" style="rounded=1;whiteSpace=wrap;html=1;fillColor=#fad7ac;sketch=1;strokeColor=#b46504;fontStyle=1" parent="1" vertex="1">
          <mxGeometry x="440" y="878" width="280" height="40" as="geometry" />
        </mxCell>
        <mxCell id="yIkUFP5XTHeedF_Cc7hn-14" value="&lt;div&gt;工具间&lt;/div&gt;&lt;div&gt;修车厂&lt;br&gt;&lt;/div&gt;" style="text;html=1;strokeColor=none;fillColor=none;align=center;verticalAlign=middle;whiteSpace=wrap;rounded=0;sketch=1;fontStyle=1" parent="1" vertex="1">
          <mxGeometry x="560" y="703" width="60" height="30" as="geometry" />
        </mxCell>
        <mxCell id="0hWjsGcmxzUolZV_Z9CK-1" value="Text" style="text;html=1;resizable=0;autosize=1;align=center;verticalAlign=middle;points=[];fillColor=none;strokeColor=none;rounded=0;" parent="1" vertex="1">
          <mxGeometry x="80" y="303" width="40" height="30" as="geometry" />
        </mxCell>
        <mxCell id="EuaJwYMMukTncJkP8gd--3" value="&lt;div&gt;桌子&lt;/div&gt;&lt;div&gt;椅子&lt;br&gt;&lt;/div&gt;" style="rounded=1;whiteSpace=wrap;html=1;fillColor=#f8cecc;sketch=1;strokeColor=#b85450;fontStyle=1" parent="1" vertex="1">
          <mxGeometry x="120" y="478" width="80" height="120" as="geometry" />
        </mxCell>
        <mxCell id="K3JY6lSeTadiJTJVGYnh-1" style="edgeStyle=orthogonalEdgeStyle;rounded=0;orthogonalLoop=1;jettySize=auto;html=1;exitX=0.5;exitY=1;exitDx=0;exitDy=0;" parent="1" source="zEPNm0XynteU0LPwdfjk-37" target="zEPNm0XynteU0LPwdfjk-37" edge="1">
          <mxGeometry relative="1" as="geometry" />
        </mxCell>
        <mxCell id="K3JY6lSeTadiJTJVGYnh-2" value="" style="endArrow=classic;startArrow=classic;html=1;rounded=0;" parent="1" edge="1">
          <mxGeometry width="50" height="50" relative="1" as="geometry">
            <mxPoint x="400" y="928" as="sourcePoint" />
            <mxPoint x="350" y="928" as="targetPoint" />
          </mxGeometry>
        </mxCell>
        <mxCell id="K3JY6lSeTadiJTJVGYnh-4" value="常用工具" style="rounded=1;whiteSpace=wrap;html=1;fillColor=#fad7ac;sketch=1;strokeColor=#b46504;fontStyle=1" parent="1" vertex="1">
          <mxGeometry x="680" y="598" width="80" height="40" as="geometry" />
        </mxCell>
        <mxCell id="K3JY6lSeTadiJTJVGYnh-5" value="近战武器" style="rounded=1;whiteSpace=wrap;html=1;fillColor=#fad7ac;sketch=1;strokeColor=#b46504;fontStyle=1" parent="1" vertex="1">
          <mxGeometry x="560" y="518" width="80" height="40" as="geometry" />
        </mxCell>
        <mxCell id="K3JY6lSeTadiJTJVGYnh-6" value="材料" style="rounded=1;whiteSpace=wrap;html=1;fillColor=#fad7ac;sketch=1;strokeColor=#b46504;fontStyle=1" parent="1" vertex="1">
          <mxGeometry x="560" y="598" width="80" height="40" as="geometry" />
        </mxCell>
        <mxCell id="K3JY6lSeTadiJTJVGYnh-9" value="电子材料" style="rounded=1;whiteSpace=wrap;html=1;fillColor=#fad7ac;sketch=1;strokeColor=#b46504;fontStyle=1" parent="1" vertex="1">
          <mxGeometry x="440" y="518" width="80" height="40" as="geometry" />
        </mxCell>
        <mxCell id="K3JY6lSeTadiJTJVGYnh-10" value="汽修材料" style="rounded=1;whiteSpace=wrap;html=1;fillColor=#fad7ac;sketch=1;strokeColor=#b46504;fontStyle=1" parent="1" vertex="1">
          <mxGeometry x="440" y="598" width="80" height="40" as="geometry" />
        </mxCell>
        <mxCell id="K3JY6lSeTadiJTJVGYnh-11" value="灯" style="ellipse;whiteSpace=wrap;html=1;aspect=fixed;sketch=1;fillColor=#b0e3e6;strokeColor=#0e8088;fontStyle=1;" parent="1" vertex="1">
          <mxGeometry x="320" y="638" width="40" height="40" as="geometry" />
        </mxCell>
        <mxCell id="xCjOq8xxofOzxff1FpcE-1" value="&lt;font style=&quot;font-size: 24px;&quot;&gt;1楼&lt;/font&gt;" style="text;html=1;strokeColor=none;fillColor=none;align=center;verticalAlign=middle;whiteSpace=wrap;rounded=0;" parent="1" vertex="1">
          <mxGeometry x="366" y="118" width="60" height="30" as="geometry" />
        </mxCell>
        <mxCell id="xCjOq8xxofOzxff1FpcE-2" value="门" style="text;html=1;strokeColor=none;fillColor=none;align=center;verticalAlign=middle;whiteSpace=wrap;rounded=0;sketch=1;fontStyle=1" parent="1" vertex="1">
          <mxGeometry x="360" y="930" width="40" height="40" as="geometry" />
        </mxCell>
        <mxCell id="xCjOq8xxofOzxff1FpcE-3" value="" style="endArrow=classic;startArrow=classic;html=1;rounded=0;" parent="1" edge="1">
          <mxGeometry width="50" height="50" relative="1" as="geometry">
            <mxPoint x="405" y="190" as="sourcePoint" />
            <mxPoint x="355" y="190" as="targetPoint" />
          </mxGeometry>
        </mxCell>
        <mxCell id="xCjOq8xxofOzxff1FpcE-4" value="门" style="text;html=1;strokeColor=none;fillColor=none;align=center;verticalAlign=middle;whiteSpace=wrap;rounded=0;sketch=1;fontStyle=1" parent="1" vertex="1">
          <mxGeometry x="360" y="159" width="40" height="38" as="geometry" />
        </mxCell>
      </root>
    </mxGraphModel>
  </diagram>
</mxfile>
